        <svg
            width="115"
            height="92"
            viewBox="0 0 115 92"
            fill="none"
            xmlns="http://www.w3.org/2000/svg"
        >
            <path
                d="M95.6628 44.6881C96.2238 44.6881 96.6828 45.1471 96.6828 45.7081C96.6828 46.2691 96.2238 46.7281 95.6628 46.7281C95.1018 46.7281 94.6428 46.2691 94.6428 45.7081C94.6428 45.1471 95.1018 44.6881 95.6628 44.6881ZM21.4578 44.8921H21.0498C21.0498 45.4531 21.0498 46.0141 21.0498 46.5751C21.2028 46.5751 21.3048 46.5751 21.4578 46.5751C21.4068 46.2181 21.7128 46.2181 22.0188 46.2181C56.9028 46.2181 58.1778 46.2181 93.0618 46.2181C93.3168 46.2181 93.6228 46.2181 93.6228 46.5751C93.7758 46.5751 93.8778 46.5751 94.0308 46.5751C94.0308 46.0141 94.0308 45.4531 94.0308 44.8921H93.6228C93.6738 45.3001 93.2658 45.2491 93.0108 45.2491C58.1778 45.2491 56.9028 45.2491 22.0188 45.2491C21.8148 45.2491 21.4068 45.3001 21.4578 44.8921ZM13.5528 45.4531C15.3378 44.2801 15.3378 41.6281 13.2978 40.8631C10.9518 39.9961 9.26881 42.5461 10.7988 43.7191C11.5638 44.2801 12.7878 44.1781 13.1958 43.2091C13.3488 42.9031 13.2468 42.4441 12.9918 42.1891C12.6858 41.8831 12.2268 41.9341 11.9718 42.2911C11.7168 42.6481 11.8188 43.1071 12.1248 43.4131C12.2268 43.4641 12.2778 43.5151 12.3798 43.5661C11.7168 43.9231 10.5948 43.4641 10.5948 42.5971C10.6458 40.7611 13.8588 40.5061 14.3688 42.8521C14.6748 44.1781 13.6038 45.4531 12.4308 45.6061C12.1758 45.7591 12.2268 45.9631 12.4308 46.1161C13.6038 46.2691 14.6748 47.5441 14.3688 48.8701C13.8588 51.1651 10.6458 50.9101 10.5948 49.0741C10.5438 48.1561 11.6658 47.6971 12.3798 48.1051C12.2778 48.1561 12.1758 48.2071 12.1248 48.2581C11.8188 48.5641 11.7168 49.0231 11.9718 49.3801C12.2268 49.7371 12.6348 49.7371 12.9918 49.4821C13.2978 49.2271 13.3998 48.7681 13.1958 48.4621C12.7878 47.4931 11.5638 47.3401 10.7988 47.9521C9.26881 49.1251 10.9008 51.6751 13.2978 50.8081C15.3378 50.0431 15.3888 47.3911 13.5528 46.2181C14.7768 46.1161 17.2248 45.9121 17.2248 46.7791H17.6328V45.9631V45.0961C17.1228 45.0961 17.7348 45.0961 17.2248 45.0961C17.1738 45.7081 14.7768 45.5041 13.5528 45.4531ZM8.75881 44.7391C7.27981 44.6371 6.00481 45.1471 4.88281 45.7591C6.00481 46.3201 7.48381 46.7791 8.75881 46.7791C10.0338 46.7281 10.6968 45.9631 11.0028 45.7591C10.6968 45.5551 10.2378 44.8411 8.75881 44.7391ZM19.4178 44.6881C18.8568 44.6881 18.3978 45.1471 18.3978 45.7081C18.3978 46.2691 18.8568 46.7281 19.4178 46.7281C19.9788 46.7281 20.4378 46.2691 20.4378 45.7081C20.4378 45.1471 19.9788 44.6881 19.4178 44.6881ZM101.528 45.4531C99.7428 44.2801 99.7428 41.6281 101.783 40.8631C104.129 39.9961 105.812 42.5461 104.282 43.7191C103.517 44.2801 102.293 44.1781 101.885 43.2091C101.732 42.9031 101.834 42.4441 102.089 42.1891C102.395 41.8831 102.854 41.9341 103.109 42.2911C103.364 42.6481 103.16 43.2091 102.956 43.4131C102.752 43.6171 102.803 43.5151 102.701 43.5661C103.364 43.9231 104.486 43.4641 104.486 42.5971C104.435 40.7611 101.222 40.5061 100.712 42.8521C100.406 44.1781 101.477 45.4531 102.65 45.6061C102.905 45.7591 102.854 45.9631 102.65 46.1161C101.477 46.2691 100.406 47.5441 100.712 48.8701C101.222 51.1651 104.435 50.9101 104.486 49.0741C104.537 48.1561 103.415 47.6971 102.701 48.1051C102.803 48.1561 102.905 48.2071 102.956 48.2581C103.262 48.5641 103.364 49.0231 103.109 49.3801C102.854 49.7371 102.446 49.7371 102.089 49.4821C101.783 49.2271 101.681 48.7681 101.885 48.4621C102.293 47.4931 103.517 47.3401 104.282 47.9521C105.812 49.1251 104.129 51.6751 101.783 50.8081C99.7428 50.0431 99.6918 47.3911 101.528 46.2181C100.253 46.1161 97.8558 45.9121 97.8558 46.7791H97.4478V45.9631V45.0961C97.9578 45.0961 97.3458 45.0961 97.8558 45.0961C97.9068 45.7081 100.304 45.5041 101.528 45.4531ZM106.322 44.7391C107.801 44.6371 109.076 45.1471 110.198 45.7591C109.076 46.3201 107.597 46.7791 106.322 46.7791C105.047 46.7281 104.384 45.9631 104.129 45.7591C104.384 45.5551 104.843 44.8411 106.322 44.7391Z"
                fill="#F59E0B"
            />
            <path
                d="M17.6895 45.9293L22.1647 48.033L17.9572 50.6723L22.7002 52.2023L18.837 55.3388L23.733 56.295L20.2905 59.8905L25.263 60.2348L22.3177 64.2128L27.252 63.945L24.804 68.2673L29.7 67.3875L27.7875 71.9775L32.5305 70.4858L31.1917 75.267L35.7435 73.2398L34.9785 78.174L39.2242 75.6113L39.0712 80.5838L43.011 77.5238L43.4317 82.4963L46.9507 79.0155L47.9835 83.8733L51.0817 79.9718L52.65 84.7148L55.2892 80.469L57.393 84.9825L59.4967 80.469L62.1359 84.7148L63.7042 79.9718L66.8025 83.8733L67.797 79.0155L71.3542 82.4963L71.775 77.5238L75.7147 80.5838L75.5234 75.6113L79.8075 78.174L79.0425 73.2398L83.5942 75.267L82.2172 70.4858L86.9985 71.9775L85.086 67.3875L89.982 68.2673L87.534 63.945L92.4682 64.2128L89.523 60.2348L94.4955 59.8905L91.053 56.295L95.9107 55.3388L92.0857 52.2023L96.7905 50.6723L92.583 48.033L97.0965 45.9293L92.583 43.8255L96.7905 41.148L92.0857 39.618L95.9107 36.4815L91.053 35.5253L94.4572 31.9298L89.523 31.6238L92.4682 27.6075L87.4957 27.9135L89.9437 23.5913L85.086 24.471L86.9602 19.881L82.2172 21.3345L83.556 16.5533L79.0425 18.5805L79.8075 13.6845L75.5234 16.209L75.7147 11.2748L71.775 14.2965L71.3542 9.36229L67.797 12.843L66.8025 7.98529L63.7042 11.8485L62.1359 7.14379L59.4967 11.3513L57.393 6.87604L55.2892 11.3513L52.65 7.14379L51.0817 11.8485L47.9835 7.98529L46.9507 12.843L43.4317 9.36229L43.011 14.2965L39.0712 11.2748L39.2242 16.209L34.9785 13.6845L35.7435 18.5805L31.1917 16.5533L32.5305 21.3345L27.7875 19.881L29.7 24.471L24.804 23.5913L27.252 27.9135L22.3177 27.6075L25.263 31.6238L20.2905 31.9298L23.733 35.5253L18.837 36.4815L22.7002 39.618L17.9572 41.148L22.1647 43.8255L17.6895 45.9293Z"
                fill="#DCBE80"
            />
            <path
                d="M57.471 79.7616C38.7285 79.7616 23.4668 64.5381 23.4668 45.8339C23.4668 27.1296 38.7285 11.9061 57.471 11.9061C76.2136 11.9061 91.4753 27.1296 91.4753 45.8339C91.4753 64.5764 76.2136 79.7616 57.471 79.7616ZM57.471 12.8241C39.1875 12.8241 24.3083 27.6651 24.3083 45.8721C24.3083 64.1174 39.1875 78.9201 57.471 78.9201C75.7546 78.9201 90.6338 64.0791 90.6338 45.8721C90.6338 27.6269 75.7546 12.8241 57.471 12.8241Z"
                fill="#C5932C"
            />
            <path
                d="M57.4232 66.6439C45.9482 66.6439 36.6152 57.3109 36.6152 45.8741C36.6152 34.4374 45.9482 25.1044 57.4232 25.1044C68.8982 25.1044 78.2312 34.3991 78.2312 45.8741C78.2312 57.3109 68.8982 66.6439 57.4232 66.6439ZM57.4232 25.9459C46.4072 25.9459 37.4567 34.8964 37.4567 45.8741C37.4567 56.8519 46.4072 65.8024 57.4232 65.8024C68.4392 65.8024 77.3897 56.8519 77.3897 45.8741C77.3897 34.8964 68.4392 25.9459 57.4232 25.9459Z"
                fill="#C5932C"
            />
            <path
                d="M25.5586 45.661C25.5586 63.256 39.8641 77.5232 57.4973 77.5232C75.1306 77.5232 89.4361 63.256 89.4361 45.661C89.4361 28.066 75.1306 13.7987 57.4973 13.7987C39.8641 13.7987 25.5586 28.066 25.5586 45.661ZM35.8861 45.661C35.8861 33.7652 45.5633 24.1262 57.4973 24.1262C69.4313 24.1262 79.1086 33.7652 79.1086 45.661C79.1086 57.5567 69.4313 67.1957 57.4973 67.1957C45.5633 67.234 35.8861 57.5567 35.8861 45.661Z"
                fill="#DCBE80"
            />
            <path
                fill-rule="evenodd"
                clip-rule="evenodd"
                d="M72.873 44.7569L73.7146 45.8662L72.9113 46.9754L74.2118 46.5164L75.0151 47.6256V46.2487L76.2773 45.7896L74.9768 45.4071V44.0302L74.1736 45.1394L72.873 44.7569Z"
                fill="#C5932C"
            />
            <path
                fill-rule="evenodd"
                clip-rule="evenodd"
                d="M74.8915 43.3273L74.5473 41.9886L75.733 41.3001L74.356 41.1853L74.05 39.8466L73.5145 41.1088L72.1758 41.0323L73.2085 41.9121L72.7113 43.1743L73.8588 42.4476L74.8915 43.3273Z"
                fill="#C5932C"
            />
            <path
                fill-rule="evenodd"
                clip-rule="evenodd"
                d="M73.8946 39.1481L73.2444 37.9623L74.2006 36.9678L72.8619 37.1973L72.2116 36.0116L72.0204 37.3503L70.6816 37.5798L71.9056 38.1918L71.7144 39.5306L72.6706 38.5743L73.8946 39.1481Z"
                fill="#C5932C"
            />
            <path
                fill-rule="evenodd"
                clip-rule="evenodd"
                d="M71.7718 35.402L70.8538 34.3692L71.5423 33.1835L70.28 33.7572L69.4003 32.7245L69.515 34.1015L68.291 34.637L69.6298 34.943L69.7445 36.2817L70.433 35.096L71.7718 35.402Z"
                fill="#C5932C"
            />
            <path
                fill-rule="evenodd"
                clip-rule="evenodd"
                d="M68.86 32.2499L67.7507 31.4849L68.1715 30.1844L67.0622 30.9877L65.953 30.2227L66.412 31.5232L65.3027 32.3265L66.6797 32.2882L67.1005 33.5887L67.5212 32.2882L68.86 32.2499Z"
                fill="#C5932C"
            />
            <path
                fill-rule="evenodd"
                clip-rule="evenodd"
                d="M65.2589 29.8788L63.9967 29.3816L64.0349 28.0428L63.1934 29.0756L61.9312 28.6166L62.6579 29.7641L61.8164 30.7969L63.1169 30.4526L63.8819 31.6001L63.9584 30.2231L65.2589 29.8788Z"
                fill="#C5932C"
            />
            <path
                fill-rule="evenodd"
                clip-rule="evenodd"
                d="M61.2514 28.4389L59.9127 28.2859L59.6449 26.9471L59.0712 28.1711L57.7324 28.0181L58.7269 28.9361L58.1532 30.1984L59.3389 29.5099L60.3334 30.4661L60.0657 29.1274L61.2514 28.4389Z"
                fill="#C5932C"
            />
            <path
                fill-rule="evenodd"
                clip-rule="evenodd"
                d="M56.8686 28.0181L55.5299 28.1711L54.9561 26.9471L54.6884 28.2859L53.3496 28.4389L54.5354 29.1274L54.2676 30.4661L55.2621 29.5099L56.4479 30.1984L55.8741 28.9361L56.8686 28.0181Z"
                fill="#C5932C"
            />
            <path
                fill-rule="evenodd"
                clip-rule="evenodd"
                d="M52.693 28.6166L51.4307 29.0756L50.5892 28.0428L50.6275 29.3816L49.3652 29.8788L50.704 30.2231L50.7422 31.6001L51.5072 30.4526L52.8077 30.7969L51.9662 29.7641L52.693 28.6166Z"
                fill="#C5932C"
            />
            <path
                fill-rule="evenodd"
                clip-rule="evenodd"
                d="M48.6863 30.2227L47.5771 30.9877L46.506 30.1844L46.8885 31.4849L45.7793 32.2499L47.118 32.2882L47.5388 33.5887L47.9596 32.2882L49.3366 32.3265L48.2655 31.5232L48.6863 30.2227Z"
                fill="#C5932C"
            />
            <path
                fill-rule="evenodd"
                clip-rule="evenodd"
                d="M45.3004 32.7245L44.3824 33.7572L43.1201 33.1835L43.8086 34.3692L42.8906 35.402L44.2294 35.096L44.9179 36.2817L45.0709 34.943L46.3714 34.637L45.1474 34.1015L45.3004 32.7245Z"
                fill="#C5932C"
            />
            <path
                fill-rule="evenodd"
                clip-rule="evenodd"
                d="M42.489 36.0116L41.8387 37.1973L40.5 36.9678L41.4562 37.9623L40.806 39.1481L42.03 38.5743L42.9862 39.5306L42.795 38.1918L44.019 37.5798L42.6803 37.3503L42.489 36.0116Z"
                fill="#C5932C"
            />
            <path
                fill-rule="evenodd"
                clip-rule="evenodd"
                d="M40.5893 39.8466L40.245 41.1853L38.9062 41.3001L40.0537 41.9886L39.7095 43.3273L40.7423 42.4476L41.8898 43.1743L41.3925 41.9121L42.4253 41.0323L41.0865 41.1088L40.5893 39.8466Z"
                fill="#C5932C"
            />
            <path
                fill-rule="evenodd"
                clip-rule="evenodd"
                d="M39.5709 44.08L39.6091 45.4187L38.3086 45.8777L39.6091 46.2602L39.6473 47.6372L40.4123 46.528L41.7129 46.9105L40.9096 45.8395L41.6746 44.692L40.4123 45.151L39.5709 44.08Z"
                fill="#C5932C"
            />
            <path
                fill-rule="evenodd"
                clip-rule="evenodd"
                d="M39.7095 48.3632L40.0537 49.7019L38.9062 50.3904L40.245 50.5052L40.5893 51.8439L41.0865 50.5817L42.4253 50.6582L41.3925 49.7784L41.8898 48.5162L40.7423 49.2429L39.7095 48.3632Z"
                fill="#C5932C"
            />
            <path
                fill-rule="evenodd"
                clip-rule="evenodd"
                d="M40.806 52.5308L41.4562 53.7166L40.5 54.7111L41.8387 54.4816L42.489 55.6673L42.6803 54.3286L44.019 54.0991L42.795 53.4871L42.9862 52.1483L42.03 53.1046L40.806 52.5308Z"
                fill="#C5932C"
            />
            <path
                fill-rule="evenodd"
                clip-rule="evenodd"
                d="M42.8906 56.2654L43.8086 57.2981L43.1201 58.4839L44.3824 57.9101L45.3004 58.9429L45.1474 57.5659L46.3714 57.0304L45.0709 56.7244L44.9179 55.3856L44.2294 56.5714L42.8906 56.2654Z"
                fill="#C5932C"
            />
            <path
                fill-rule="evenodd"
                clip-rule="evenodd"
                d="M45.7793 59.4636L46.8885 60.2286L46.506 61.5291L47.5771 60.7259L48.6863 61.4909L48.2655 60.1904L49.3366 59.3871L47.9596 59.4254L47.5388 58.1249L47.118 59.4254L45.7793 59.4636Z"
                fill="#C5932C"
            />
            <path
                fill-rule="evenodd"
                clip-rule="evenodd"
                d="M49.3652 61.8383L50.6275 62.3356L50.5892 63.6743L51.4307 62.6033L52.693 63.1006L51.9662 61.9531L52.8077 60.9203L51.5072 61.2646L50.7422 60.1171L50.704 61.4941L49.3652 61.8383Z"
                fill="#C5932C"
            />
            <path
                fill-rule="evenodd"
                clip-rule="evenodd"
                d="M53.3496 63.2898L54.6884 63.4428L54.9561 64.7816L55.5299 63.5576L56.8686 63.7106L55.8741 62.7926L56.4479 61.5303L55.2621 62.1806L54.2676 61.2626L54.5354 62.6013L53.3496 63.2898Z"
                fill="#C5932C"
            />
            <path
                fill-rule="evenodd"
                clip-rule="evenodd"
                d="M57.7324 63.7106L59.0712 63.5576L59.6449 64.7816L59.9127 63.4428L61.2514 63.2898L60.0657 62.6013L60.3334 61.2626L59.3389 62.1806L58.1532 61.5303L58.7269 62.7926L57.7324 63.7106Z"
                fill="#C5932C"
            />
            <path
                fill-rule="evenodd"
                clip-rule="evenodd"
                d="M61.9312 63.1006L63.1934 62.6033L64.0349 63.6743L63.9967 62.3356L65.2589 61.8383L63.9584 61.4941L63.8819 60.1171L63.1169 61.2646L61.8164 60.9203L62.6579 61.9531L61.9312 63.1006Z"
                fill="#C5932C"
            />
            <path
                fill-rule="evenodd"
                clip-rule="evenodd"
                d="M65.953 61.4909L67.0622 60.7259L68.1715 61.5291L67.7507 60.2286L68.86 59.4636L67.5212 59.4254L67.1005 58.1249L66.6797 59.4254L65.3027 59.3871L66.412 60.1904L65.953 61.4909Z"
                fill="#C5932C"
            />
            <path
                fill-rule="evenodd"
                clip-rule="evenodd"
                d="M69.4003 58.9429L70.28 57.9101L71.5423 58.4839L70.8538 57.2981L71.7718 56.2654L70.433 56.5714L69.7445 55.3856L69.6298 56.7244L68.291 57.0304L69.515 57.5659L69.4003 58.9429Z"
                fill="#C5932C"
            />
            <path
                fill-rule="evenodd"
                clip-rule="evenodd"
                d="M72.2116 55.6673L72.8619 54.4816L74.2006 54.7111L73.2444 53.7166L73.8946 52.5308L72.6706 53.1046L71.7144 52.1483L71.9056 53.4871L70.6816 54.0991L72.0204 54.3286L72.2116 55.6673Z"
                fill="#C5932C"
            />
            <path
                fill-rule="evenodd"
                clip-rule="evenodd"
                d="M74.1497 51.8439L74.4556 50.5052L75.8326 50.3904L74.6469 49.7019L74.9911 48.3632L73.9584 49.2429L72.8109 48.5162L73.3081 49.7784L72.2754 50.6582L73.6141 50.5817L74.1497 51.8439Z"
                fill="#C5932C"
            />
            <path
                fill-rule="evenodd"
                clip-rule="evenodd"
                d="M72.873 44.7569L73.7146 45.8662L72.9113 46.9754L74.2118 46.5164L75.0151 47.6256V46.2487L76.2773 45.7896L74.9768 45.4071V44.0302L74.1736 45.1394L72.873 44.7569Z"
                fill="#C5932C"
            />
            <path
                d="M84.3106 44.6557C84.3488 44.8852 84.4253 45.153 84.5401 45.3442C85.2668 46.989 87.0263 47.9834 88.9006 47.7922C87.3706 46.9507 86.2231 45.1147 84.9226 43.8524C84.4253 43.3552 84.1576 43.0492 84.0046 42.2842C83.9663 42.0165 83.6221 41.022 83.9663 41.5192C84.2723 41.9782 84.3488 42.4372 84.6931 42.8962C85.7641 44.1584 87.2176 44.6557 88.9006 44.3114C87.2941 43.6994 85.8788 41.9399 84.5401 40.8689C83.9281 40.4482 83.6603 40.2569 83.4691 39.4919C83.3926 39.2242 82.9336 38.1914 83.3161 38.6887C83.6603 39.1477 83.7751 39.6067 84.2341 40.0657C85.4963 41.2514 86.8733 41.4809 88.5563 41.0984C86.8733 40.6394 85.3051 38.9564 83.8516 38.0384C83.2396 37.6559 82.8571 37.503 82.5893 36.738C82.5128 36.5085 82.0156 35.6669 82.3981 36.0112C82.7806 36.3554 82.9336 36.8145 83.3926 37.1205C84.6931 38.0767 86.3378 38.3444 87.7913 37.5794C85.9936 37.3117 84.3488 35.9347 82.7806 35.208C82.1303 34.8637 81.7861 34.7107 81.4418 34.0605C81.3271 33.831 80.7151 32.9894 81.1741 33.3719C81.5948 33.7162 81.8243 34.1369 82.2833 34.4047C83.6986 35.2079 85.3816 35.2845 86.7586 34.443C85.6493 34.443 84.9226 34.0222 84.0811 33.5249C83.1631 32.9512 82.0156 32.76 81.0211 32.3392C80.1413 31.995 80.1796 31.4212 79.5676 30.8092C79.6823 30.924 79.9118 31.1152 80.0266 31.2299C80.5238 31.6889 81.0976 31.8802 81.7478 32.0332C83.1248 32.3392 84.3106 32.0714 85.3051 31.2299C83.4308 31.3829 81.8626 30.4267 80.1413 30.0442C79.9501 30.006 78.7643 29.8147 78.7643 29.6617C78.7643 29.853 77.9611 28.6672 77.8081 28.5142C77.4638 28.17 78.1141 28.7054 78.4583 28.9732C80.0266 30.0442 82.3216 29.5852 83.5456 28.323C81.9391 28.7055 80.4856 27.9022 78.8791 27.7492C78.1906 27.6727 77.0813 27.7492 76.5841 27.2519C76.3163 26.9842 76.0868 26.7547 75.8191 26.4869C75.7808 26.4487 75.4366 26.2192 75.5896 26.2574C75.7043 26.2957 75.8573 26.4869 75.9338 26.5252C77.7316 27.6727 80.1413 27.2902 81.5183 25.7219C80.2178 26.1044 79.1086 25.6837 77.7316 25.5689C76.8136 25.4924 75.8191 25.6072 74.9393 25.4924C74.4803 25.4159 74.1361 24.9952 73.7536 24.7274C73.1033 24.2302 75.0923 25.1099 75.9721 24.9952C77.3108 24.8422 78.3818 24.2302 79.1086 23.0827C77.9228 23.6182 76.7753 23.3504 75.3601 23.4652C73.7536 23.5799 72.7973 23.9242 71.4968 23.1209C71.3056 23.0062 71.0378 23.0444 70.9613 22.8149C70.9231 22.7002 71.1143 22.8532 71.1908 22.8914C71.3821 22.8914 71.4968 22.9679 71.6498 23.0444C72.2618 23.2357 72.9886 23.2357 73.6388 23.0827C74.9393 22.8149 75.9338 22.0882 76.5458 20.9024C75.0923 21.6674 72.6826 21.6674 71.0761 22.0117C70.3111 22.1647 70.0051 22.2412 69.3166 21.8969C69.0871 21.7822 68.0161 21.4379 68.6281 21.4762C69.1636 21.4762 69.6226 21.7057 70.1963 21.6674C71.9941 21.4762 73.0651 20.4434 73.7918 18.9899C72.3766 19.9462 70.0433 20.1374 68.4368 20.5964C67.7101 20.8642 67.4041 20.9789 66.6773 20.7494C66.4478 20.6347 65.4151 20.4434 65.9888 20.4052C66.4861 20.3287 66.9833 20.5199 67.4423 20.3669C69.1636 19.9462 70.1581 18.8369 70.6936 17.2304C69.6226 18.1867 68.3986 18.1867 67.2128 18.7604C66.6391 19.0282 65.1091 20.1374 64.4971 19.9844C63.9999 19.8697 63.4261 19.7167 62.8906 19.6019C65.2621 19.5254 67.2893 18.3779 67.5571 16.0447C66.6774 17.0009 65.6828 17.1922 64.5736 17.7277C63.9616 18.0719 63.1966 18.7222 62.4698 19.1047C62.2021 19.2577 61.9343 19.3724 61.6666 19.4107C61.2076 19.4872 60.5574 19.2577 60.0984 19.1812C61.0546 19.0282 61.8578 18.7222 62.4698 18.2632C63.4261 17.5747 63.9998 16.4654 64.1911 15.0502C63.7321 15.6622 63.1201 16.1594 62.4698 16.5419C61.6283 17.0774 60.7486 17.6129 59.9453 18.1867C59.7158 18.4162 59.1421 18.9517 58.7978 19.0282C58.7596 19.0282 58.6448 19.0282 58.4536 18.9899C58.3771 18.9899 58.2623 18.9899 58.1476 18.9899C57.8033 18.9517 57.4973 18.9517 57.1913 18.9517C59.4863 18.4162 60.9016 16.9627 60.9016 14.4764C60.2131 15.7004 59.0656 16.0829 58.0711 16.9627C57.7268 17.3069 57.4591 17.5747 57.1913 17.8424C56.4263 18.6074 55.8143 19.1047 54.3226 19.1047C55.5466 18.6074 56.6176 17.7659 57.1913 16.6184C57.4973 15.9299 57.6121 15.1267 57.4208 14.2469C57.3443 14.4382 57.2678 14.5912 57.1913 14.7059C56.5411 15.9299 55.2023 16.6567 54.3226 17.7659C54.3226 17.8042 54.2843 17.8424 54.2461 17.8807C53.9783 18.2632 53.2516 19.3342 52.9456 19.3342C52.7161 19.3342 52.4866 19.3724 52.2188 19.4107C51.8746 19.4489 51.5686 19.5637 51.2626 19.6402C51.6068 19.4872 51.9128 19.2959 52.2188 19.1429C53.2516 18.4162 54.0931 17.3452 54.2461 16.0829C54.2843 15.8152 54.2843 15.5474 54.2461 15.2414C54.2078 14.9737 54.1696 14.7059 54.0548 14.4382C53.7488 15.4709 53.1368 16.0064 52.4101 16.8097C52.3336 16.8862 52.2571 16.9627 52.2188 17.0392C51.5303 17.8042 51.0331 18.7222 50.4211 19.5254C49.9621 20.0992 49.1971 20.1757 48.5468 20.4052C50.3828 19.2194 51.6068 17.1539 50.6123 14.9354C50.3828 16.3507 49.4266 17.0774 48.7763 18.2249C48.5851 18.5309 47.7436 20.8642 47.2846 20.8642C47.3228 20.8642 47.3228 20.8642 47.3228 20.8642C46.7873 21.0554 46.2518 21.3232 45.7546 21.5144C47.7053 20.2904 48.4703 17.8807 47.3993 15.7387C47.2081 17.1539 46.4813 17.9954 45.9076 19.2194C45.5251 20.0609 45.2956 20.9789 44.8366 21.7822C44.5688 22.2794 43.4978 22.7002 43.0388 23.0062C44.8748 21.5527 45.7546 18.9899 44.3011 17.0009C44.3011 18.4544 43.6126 19.4489 43.1153 20.6729C42.7328 21.5909 42.5798 22.5854 42.2356 23.4652C42.1208 23.8094 41.0881 24.3067 40.7821 24.5744C42.5416 23.0444 42.5416 20.3287 41.1263 18.6074C41.3176 19.9844 40.8203 20.8642 40.5143 22.0117C40.2466 22.9297 40.4378 24.4597 39.9406 25.2247C39.5963 25.7219 38.9843 26.1044 38.5636 26.4869C40.1701 24.9187 40.0553 21.9352 38.3723 20.4434C38.6783 21.7439 38.2193 22.7002 38.0663 23.8859C37.9516 24.8422 38.2576 26.4104 37.7986 27.2137C37.5308 27.7109 36.9188 28.2082 36.5363 28.6289C37.9133 26.5634 37.5691 24.1537 35.7331 22.6237C36.2686 24.1537 35.8096 26.1044 35.8861 27.8639C35.8861 28.2082 36.0773 29.3557 35.8096 29.5087C35.8478 29.5087 35.8478 29.5087 35.8478 29.5087C35.5418 29.9294 35.2358 30.3502 34.8916 30.8092C35.6948 28.5525 35.3123 26.4104 33.2851 25.1099C33.9353 26.5634 33.7441 28.7054 34.0501 30.3502C34.2031 31.2682 34.2796 31.7655 33.8206 32.5305C33.6676 32.7982 33.2086 33.8692 33.4381 33.1042C34.2413 30.8857 33.0556 28.7054 31.2196 27.7874C32.1376 29.3939 32.3288 32.1862 32.7496 33.9074C32.9408 34.6724 32.3288 35.5139 32.0611 36.2789C32.7878 33.8309 31.7168 31.4977 29.4601 30.6562C30.2633 31.8037 30.2633 32.9894 30.7606 34.2899C31.1048 35.1697 31.7933 36.3172 31.7551 37.2352C31.5638 37.7324 31.4108 38.3062 31.2578 38.8417C31.2578 38.421 31.3726 37.9619 31.3343 37.4647C31.1048 35.5904 29.6513 34.2134 27.8918 33.7927C28.9628 34.7489 29.0393 36.0112 29.6131 37.1587C30.0338 38.0002 30.5693 38.7652 30.8753 39.6067C31.1048 40.1422 30.7223 41.2132 30.6458 41.8634C30.6458 39.2624 29.3453 37.2352 26.8208 36.9292C27.9301 37.8472 28.1978 39.033 28.8481 40.1805C29.3071 40.9455 29.9191 41.6722 30.3398 42.5137C30.6458 43.0109 30.3781 43.9672 30.3781 44.5792C30.2251 44.1585 30.3016 43.623 30.1103 43.2405C29.4601 41.5192 27.9301 40.3717 25.9793 40.3717C27.1651 41.1367 27.5858 42.2459 28.3508 43.3169C28.8098 43.9672 30.2251 44.9617 30.2633 45.7649C30.2633 46.4152 30.3016 47.0272 30.3398 47.6392C29.9573 45.2295 28.1596 43.4317 25.5586 43.6612C26.7826 44.3114 27.3181 45.3442 28.2361 46.377C28.6951 46.9125 30.3016 47.8687 30.4163 48.5955C30.4928 49.1692 30.6076 49.7812 30.6841 50.3549C30.4546 49.9342 30.4163 49.4752 30.1868 49.0927C29.1541 47.6009 27.4711 46.7212 25.5968 47.1802C26.7443 47.6009 27.3563 48.4424 28.2743 49.3222C28.9628 50.0107 30.4163 50.5462 30.8371 51.3877C31.1431 51.9232 31.2196 52.7647 31.3343 53.3002C30.4546 51.1199 28.2743 49.7047 25.8263 50.508C27.3946 50.8905 28.4273 52.2674 29.8043 53.0324C30.3016 53.3384 31.2961 53.7592 31.6403 54.2564C31.9081 54.6772 32.0993 55.5569 32.2523 55.9394C31.1813 53.7974 28.6951 52.9942 26.5148 53.9505C27.8918 54.1417 28.5421 54.8302 29.6513 55.4422C30.4928 55.9394 32.0228 56.1689 32.6731 56.9339C33.0556 57.3547 33.2468 58.1579 33.5146 58.6552C32.0993 56.7427 29.7278 55.7864 27.5858 57.1252C29.0011 57.1252 29.8043 57.8902 30.9136 58.4257C31.8316 58.8082 33.3616 58.9229 34.0883 59.5732C34.5091 59.9939 34.8916 60.9119 35.3123 61.4857C34.1648 60.2234 33.2086 59.382 31.4108 59.3437C30.7988 59.3055 29.2688 59.6114 29.0393 60.1469C28.9628 60.2999 29.3071 60.1852 29.4218 60.1852C29.6131 60.1469 29.8043 60.1852 29.9573 60.2234C31.1431 60.4147 32.1376 61.0649 33.2468 61.3327C33.9736 61.5239 35.1211 61.6005 35.6948 61.983C36.1538 62.289 36.4981 63.0157 36.8806 63.4364C35.7331 62.5567 34.7386 61.9064 33.0556 62.0977C32.5201 62.1742 30.9901 62.5949 30.7606 63.2452C30.7606 63.2834 31.4108 63.1687 31.6786 63.2069C32.9026 63.2069 33.9353 63.7425 35.0828 63.8572C35.6566 63.9337 36.2303 63.972 36.7658 64.0485C37.0336 64.0867 37.6073 64.0484 37.6073 64.3544C37.6073 64.1249 37.8368 64.5457 37.9898 64.6987C38.2958 65.043 38.6401 65.3107 38.9843 65.655C37.3396 64.4692 34.6238 63.8955 33.0556 65.655C32.8261 65.9227 32.5966 66.0757 33.0556 65.961C34.0501 65.655 35.0063 65.9609 36.0008 66.1139C37.1483 66.3052 38.4106 66.0757 39.5581 66.2287C39.8258 66.2287 39.8258 66.4964 40.0171 66.6494C40.4378 66.9937 40.8203 67.2615 41.2411 67.5675C39.2521 66.726 37.1866 66.7642 35.6948 68.4855C35.1593 69.0975 36.8806 68.409 37.7221 68.5237C39.2521 68.7915 40.6673 68.256 42.1208 68.256C42.5416 68.256 43.3831 68.9827 43.7273 69.2122C41.8913 68.2942 39.5581 68.8297 38.3341 70.4362C37.8751 70.9717 37.8751 71.0482 38.5636 70.7805C39.4433 70.398 40.5526 70.551 41.5853 70.3597C42.4651 70.2067 43.8038 69.5947 44.6836 69.7477C45.1426 69.8624 45.7546 70.2832 46.1753 70.4744C44.1481 70.0919 42.0826 70.6275 41.1263 72.54C41.0498 72.6547 40.8968 72.9225 40.8968 73.0372C40.8968 73.0755 41.4323 72.6929 41.6236 72.6164C42.0826 72.3487 42.5798 72.2722 43.1153 72.1957C44.4541 71.9662 45.5633 71.4689 46.8256 71.0482C47.4758 70.8187 48.2026 71.2777 48.8528 71.5072C46.7873 71.316 44.7218 72.0427 43.9951 73.9935C43.9568 74.1465 43.8038 74.4524 43.8421 74.5289C43.8803 74.6054 44.3393 74.1465 44.4923 74.0317C44.9513 73.6875 45.4486 73.611 45.9458 73.4962C47.2463 73.152 48.3556 72.5017 49.5413 72.0044C50.1916 71.7367 50.9183 72.081 51.6451 72.2722C49.3883 72.2722 47.6671 73.1902 47.0168 75.2557C47.0168 75.3704 46.8256 75.6765 46.9021 75.7912C46.9403 75.8295 47.3993 75.3322 47.5141 75.2557C47.9348 74.9114 48.4321 74.7585 48.9293 74.5672C50.1916 74.07 51.0713 73.3432 52.1806 72.9607C52.7543 72.7312 53.4428 72.5782 54.2078 72.693C54.2843 72.693 54.3226 72.693 54.3991 72.693C54.3226 72.693 54.2843 72.7312 54.2078 72.7312C53.5576 72.846 52.8308 73.1137 52.1806 73.458C51.2243 73.9935 50.4593 74.7967 50.3446 75.906C50.3063 76.2502 50.0003 77.13 50.4593 76.518C50.9183 75.906 51.5686 75.5617 52.1806 75.2175C52.3718 75.1027 52.6013 74.988 52.7543 74.835C53.2516 74.529 53.7106 74.1847 54.1696 73.8022C54.5521 73.5345 54.8963 73.2667 55.2788 72.9989C55.5466 72.8077 56.7323 72.693 57.1148 72.7312C57.2678 72.7312 57.3061 72.7694 57.1148 72.8077C57.0383 72.8459 56.9618 72.846 56.8853 72.8842C55.7378 73.152 54.7816 73.8022 54.1696 74.7202C53.9018 75.1409 53.7106 75.5999 53.5958 76.0589C53.5193 76.4032 53.5193 76.7092 53.5193 77.0917C53.5193 77.3212 53.9018 76.7092 54.1696 76.365C54.2461 76.2885 54.2843 76.2502 54.3608 76.2119C54.9728 75.6382 55.7378 75.2174 56.4263 74.6819C56.6941 74.4907 56.9236 74.2612 57.1148 74.07C57.5356 73.6492 57.9181 73.1902 58.4153 72.8842C58.8743 72.5782 59.5246 72.6547 60.0984 72.6164C60.5191 72.5399 59.6776 72.7695 59.3334 72.9225C58.9891 73.0755 58.7213 73.3049 58.4153 73.5344C57.8416 74.0699 57.3443 74.7585 57.1148 75.5235C56.8853 76.0972 56.8471 76.7857 57.0001 77.4742C57.0383 77.436 57.0766 77.3595 57.1148 77.3212C57.6503 76.212 58.5683 75.5617 59.4863 74.6437C60.6721 73.4962 61.0546 72.5782 62.3934 72.2339C62.6229 72.1574 62.8906 72.1192 63.1201 72.081C63.0436 72.081 62.9288 72.1192 62.8906 72.1575C62.6993 72.234 62.5464 72.3104 62.3934 72.4252C62.3551 72.4252 62.3168 72.4635 62.3168 72.4635C60.6338 73.458 59.8689 75.2939 60.2896 77.2064C60.2896 77.2829 60.6721 76.4032 60.8634 76.0972C61.3606 75.4852 61.8578 74.835 62.3551 74.223C62.8523 73.6875 63.2731 73.1519 63.6938 72.5782C64.1911 71.8514 64.4206 71.8132 65.2238 71.5072C65.3768 71.469 65.5681 71.3542 65.6828 71.3542C65.7593 71.316 65.8741 71.2394 65.8741 71.2777C65.6446 71.5837 65.0708 71.775 64.7648 71.9662C63.9998 72.5782 63.4644 73.8022 63.3496 74.7967C63.3114 75.294 63.3496 76.4032 63.7321 76.7475C63.8086 76.824 63.7703 76.4032 63.8086 76.2502C63.9616 75.8294 64.1911 75.4087 64.4206 75.0262C65.2621 73.8405 65.8359 72.7312 66.6008 71.4689C67.0598 70.7039 67.6718 70.551 68.4751 70.2067C68.4368 70.245 68.3986 70.2449 68.3986 70.2832C68.0926 70.4744 67.7483 70.7422 67.5188 71.01C66.8303 71.928 65.6828 74.6819 66.9451 75.8677C67.0216 75.9442 67.0216 75.4087 67.0598 75.2557C67.0981 75.0262 67.2128 74.835 67.2893 74.6055C67.8631 73.1902 68.7046 71.775 69.3548 70.3597C69.7373 69.5947 70.0816 69.4034 70.8848 68.9827C71.3821 68.7149 70.2346 69.7477 70.0433 70.1302C69.6226 70.9334 69.3931 71.8897 69.5078 72.8842C69.5843 73.3815 70.2728 75.1409 70.2728 74.2994C70.3111 73.3432 70.6936 72.7694 70.9996 72.0044C71.3438 71.1247 71.5351 70.2449 71.8028 69.3652C71.9941 68.6384 72.6826 67.2614 73.6006 67.2232C73.7918 67.1849 73.3711 67.4909 73.2181 67.6439C72.7973 68.1412 72.5296 68.5237 72.3766 69.1357C72.1088 70.2449 72.1088 71.4307 72.6443 72.3487C72.7208 72.5017 72.8356 72.6547 72.9503 72.8077C73.0651 72.9224 73.1798 73.3049 73.2563 73.1902C73.3711 73.0372 73.1798 72.3487 73.1798 72.1192C73.2181 71.469 73.5623 70.857 73.7153 70.245C74.0213 69.2887 74.1361 68.2177 74.3273 67.185C74.4803 66.3817 75.1688 65.6549 75.7043 65.3489C75.8191 65.2724 75.5513 65.5784 75.4366 65.6932C75.3218 65.8079 75.2453 65.9609 75.1688 66.0757C74.4421 67.4527 74.4421 69.5947 75.5513 70.7805C75.6661 70.9335 75.8191 71.0482 75.9338 71.2012C76.0868 71.3925 75.8956 70.7422 75.8956 70.551C75.8191 69.9772 75.8956 69.4799 76.0868 68.9827C76.6223 67.1849 75.9721 64.89 77.4638 63.5512C77.7316 63.2835 76.9283 64.8899 76.9666 65.7314C77.0048 66.5347 77.5786 68.9062 78.6878 68.9827C78.8026 69.0209 78.6113 68.7532 78.5731 68.6385C78.4583 68.2942 78.4201 67.9499 78.4201 67.6057C78.3436 66.2287 78.4966 64.6604 78.4201 63.2452C78.4201 63.0157 78.3053 62.4419 78.4583 62.2889C78.4201 62.2889 78.4201 62.2889 78.4201 62.2889C78.7261 61.8682 78.9938 61.4092 79.3763 61.0267C79.6058 60.7972 79.2233 61.4092 79.1468 61.6387C78.9556 62.0977 78.9173 62.595 78.9556 63.1687C79.0321 64.3927 79.4911 65.3872 80.4091 66.1139C80.6003 66.3052 81.1741 66.8789 80.8681 66.2669C80.4856 65.3872 80.5621 64.4692 80.5238 63.4364C80.4473 62.3654 80.1796 61.4092 80.0648 60.3382C79.9883 59.8027 81.0593 57.7754 80.7151 58.8847C80.2178 60.8354 81.0593 62.9009 82.8188 63.7807C83.2396 64.0102 82.6658 63.2835 82.5511 62.9392C82.0921 61.7152 82.0921 59.9557 81.7478 58.77C81.5566 58.0432 81.2888 57.4695 81.6331 56.8192C81.7096 56.628 81.8243 56.3985 81.9008 56.2455C81.9391 56.0925 82.0156 55.7482 82.0156 55.863C82.0921 56.2072 81.8626 56.628 81.8626 57.0105C81.8626 58.1962 82.6276 59.6115 83.5838 60.2617C83.8898 60.4912 84.8843 60.8354 84.8461 60.7972C83.9663 59.4584 83.8133 57.9284 83.2396 56.5132C82.9718 55.9777 82.3981 55.0214 82.5893 54.3712C82.7041 54.1034 82.7806 53.874 82.8571 53.568C82.9336 53.3767 82.8953 52.8412 83.0101 53.0324C83.1248 53.1854 82.9718 53.8357 82.9718 54.027C82.9336 55.251 83.8516 56.7044 84.9226 57.3164C85.2668 57.5077 86.4143 57.9284 86.2231 57.7372C85.7641 57.2782 85.5346 56.8192 85.3433 56.2837C84.9608 55.1362 84.5401 54.2182 84.0046 53.1855C83.7751 52.7647 83.4691 52.3057 83.3543 51.8467C83.2396 51.4642 83.6221 50.4697 83.6986 50.0872C83.7368 49.9724 83.6603 50.3167 83.6603 50.4314C83.6603 50.6227 83.6603 50.7757 83.6603 50.9287C83.7368 51.5024 83.9281 51.9997 84.1576 52.4587C84.7696 53.6444 85.8023 54.4094 87.1028 54.6772C87.2558 54.7154 87.5618 54.9067 87.5236 54.7537C87.4853 54.6007 87.0263 54.2947 86.8733 54.1799C86.5291 53.8357 86.3761 53.4532 86.2613 53.0324C85.8023 51.9232 85.1521 51.0817 84.5018 50.0489C84.3106 49.7812 83.8516 49.2074 83.9281 48.9014C83.9663 48.6337 83.8516 47.4097 84.0046 47.2949C84.0811 47.2184 84.0428 47.4862 84.0811 47.5627C84.1193 47.7539 84.1193 47.907 84.1576 48.0982C84.2341 48.519 84.3488 48.8632 84.5783 49.2074C85.0373 50.0107 85.8023 50.5844 86.5673 51.0052C86.9498 51.2347 88.5946 51.5024 88.0591 51.1964C87.1411 50.6227 86.8733 49.6665 86.2613 48.8632C85.6876 48.0217 84.8843 47.2567 84.2341 46.377C83.8898 45.9562 84.0046 44.9235 83.9663 44.388C84.1576 43.8907 84.2341 44.4645 84.3106 44.6557ZM84.0046 46.0709C83.8133 46.4534 83.1631 46.7977 82.8188 47.0272C81.6713 47.8687 80.7916 49.0544 79.4528 49.5134C81.5948 49.9724 83.0866 48.9015 83.8133 47.0655C83.9281 46.7595 84.0046 46.4534 83.9663 47.0272C83.9663 47.1419 83.9663 47.2949 83.9663 47.3714C83.9281 47.8687 84.0428 48.5189 83.8133 48.9014C83.6221 49.2839 82.9336 49.5517 82.5511 49.743C81.2888 50.355 80.2943 51.4642 78.9173 51.8467C80.9446 52.3822 82.6658 51.6937 83.5838 49.8577C83.6603 49.6282 83.7368 49.3604 83.6603 49.8577C83.6603 49.9724 83.6221 50.0872 83.6221 50.202C83.5456 50.661 83.5456 51.3112 83.3161 51.6937C83.1248 52.0762 82.3598 52.2674 81.9391 52.4587C80.6386 52.9942 79.6058 53.9504 78.1141 54.1799C79.9883 55.0597 81.8243 54.2947 82.8953 52.6882C83.5838 51.6172 82.6658 54.1799 82.4746 54.4477C82.2451 54.8302 81.5566 54.9067 81.0976 55.0214C79.7206 55.4039 78.6496 56.3219 77.0813 56.3219C78.7643 57.3547 80.8298 56.9339 82.0538 55.4039C82.5128 54.7537 81.5948 56.8957 81.4418 57.0487C81.1741 57.4695 80.4856 57.5077 79.9883 57.5459C78.6113 57.8137 77.3108 58.617 75.8573 58.3875C77.4638 59.6115 79.4146 59.4202 80.8681 57.9667C81.6713 57.2017 80.2178 59.4202 80.1413 59.4967C79.7971 59.9175 79.1468 59.8792 78.5731 59.9175C77.0813 60.0322 75.8573 60.5677 74.4038 60.3382C76.0103 61.7534 77.9228 61.6387 79.5676 60.3C79.6441 60.2617 79.8353 59.9939 79.7206 60.2234C79.3381 61.0267 78.6878 62.0595 77.6933 62.0212C76.0868 62.0212 74.2508 62.3654 72.7973 61.8682C74.2126 63.5512 76.0868 63.6277 77.9228 62.5567C78.1141 62.442 78.0376 62.5184 77.9228 62.6714C77.5403 63.0922 77.1961 63.5512 76.7753 63.8955C76.3546 64.278 76.3546 64.2397 75.7426 64.1632C74.3273 64.0102 72.2236 64.125 70.9231 63.5512C71.9941 65.0047 73.8683 65.8462 75.5896 64.89C76.7371 64.278 74.6333 66.3052 73.8301 66.1522C73.2563 65.9992 72.6826 65.8079 72.0706 65.6932C70.9231 65.4637 69.8138 65.6167 68.8576 64.9664C69.7756 66.7642 71.6881 67.4527 73.6006 66.726C73.9066 66.6112 74.2126 66.3817 73.6388 66.8407C73.5241 66.9554 73.4093 67.032 73.2946 67.1085C72.9121 67.3762 72.4531 67.9499 72.0706 67.9882C71.6498 68.0264 71.0761 67.6822 70.6936 67.5292C69.4313 66.9937 67.9013 66.9554 66.7538 66.1139C67.4041 67.9499 69.2401 68.8679 71.2291 68.3707C71.4968 68.2942 71.5733 68.256 71.1526 68.5237C71.0378 68.562 70.9613 68.6385 70.8466 68.6767C70.4641 68.9062 70.0051 69.327 69.5843 69.4035C69.1636 69.4417 68.5516 68.9827 68.2073 68.8297C66.9833 68.2177 65.4533 68.0647 64.4206 66.9937C64.9561 68.9445 66.6008 70.0154 68.6281 69.7477C68.8958 69.7477 69.1253 69.633 68.7046 69.8625C68.6281 69.9007 68.5133 69.939 68.4368 69.9772C67.9778 70.2067 67.4806 70.5127 67.0216 70.5892C66.5626 70.6275 66.0271 70.1684 65.6446 69.9389C64.6119 69.2122 63.4643 68.868 62.5081 68.0647C62.3933 67.9117 62.2403 67.7969 62.1256 67.6439C62.1638 68.1029 62.3168 68.5619 62.5081 68.9444C63.1583 70.2449 64.5353 70.8569 66.2183 70.8569C65.6446 71.0864 64.9178 71.4307 64.2676 71.5072C63.7703 71.5455 63.0436 70.8187 62.5081 70.3214C62.3551 70.1684 62.2021 70.0537 62.0873 69.9389C61.2076 69.3652 60.2896 68.9827 59.6393 68.0647C59.7541 70.0155 60.9016 71.0482 62.5081 71.4307C62.8523 71.5454 63.1584 71.5837 63.5409 71.6219C63.1966 71.7367 62.8906 71.8132 62.5081 71.8897C62.2786 71.9662 62.0491 72.0044 61.7813 72.0427C60.7868 72.1957 59.9453 70.7804 59.2568 70.1302C58.5301 69.4799 57.7651 69.0974 57.3443 68.1794C57.1913 70.3979 58.6066 71.8514 60.6338 72.1957C60.4043 72.2339 60.1748 72.3105 59.9453 72.3105C58.1858 72.4635 57.9946 71.8897 57.2296 70.9335C57.0766 70.7805 56.9236 70.5892 56.7706 70.4362C55.9673 69.5947 55.2788 69.0975 54.7816 68.103C54.4756 70.245 55.5083 71.4689 57.1913 72.1957C57.3826 72.3104 57.6121 72.387 57.8034 72.4635C57.5739 72.5017 57.3826 72.5017 57.1913 72.5017H57.1531C56.6941 72.4635 56.2351 72.5017 55.7761 72.4252C55.2023 72.3104 54.9728 71.7749 54.7051 71.2777C54.5521 71.0099 54.3991 70.7805 54.2461 70.5892C53.5958 69.6712 52.8308 68.8297 52.4483 67.7205C51.9128 69.7095 52.7543 71.2012 54.2461 72.081C54.4756 72.1957 54.6286 72.3104 54.8581 72.3869C54.6668 72.3869 54.4373 72.3487 54.2461 72.3487C53.4811 72.3105 52.6778 72.2339 52.3336 71.6219C52.2953 71.5454 52.2571 71.469 52.2188 71.3925C51.4921 70.0537 50.2681 68.6002 50.0003 67.1085C49.1971 69.327 50.2298 70.8952 52.0276 72.0427C51.1096 71.8514 49.9238 71.8132 49.5796 70.9335C49.3118 70.398 49.1206 69.786 48.9293 69.2505C48.5086 68.1795 47.7436 67.4527 47.7436 66.1905C46.6726 68.2942 47.5523 70.092 49.3118 71.316C48.4703 70.857 47.1698 71.0099 46.9021 69.9389C46.4813 68.4472 45.5251 66.726 45.6781 65.0047C44.3393 66.9172 45.0278 68.715 46.4813 70.2067C45.9841 69.939 45.4103 69.6712 44.8748 69.4035C44.7218 69.327 44.4923 69.3652 44.4923 69.2122C44.2246 68.409 44.2628 67.4909 44.0716 66.6877C43.8038 65.6549 43.4213 64.8134 43.6126 63.6277C42.1973 65.3872 42.6181 67.2615 43.9951 68.868C43.4978 68.562 42.3886 68.2177 42.0826 67.6822C41.7383 67.1085 42.0061 65.8462 41.9296 65.1194C41.7766 64.0102 41.5088 63.1305 41.7383 62.0212C40.0936 63.5512 40.3613 65.6167 41.5471 67.2997C40.7821 66.726 39.6728 66.3052 39.7493 65.1577C39.8641 63.6659 39.6728 61.6387 40.1701 60.3C38.2958 61.677 38.4871 63.4747 39.2521 65.3872C38.6401 64.8135 37.6456 64.2015 37.7603 63.2834C37.9516 61.8299 37.9898 59.6114 38.6783 58.3109C36.7276 59.5349 36.5746 61.2945 37.3013 63.36C36.8423 62.901 36.3451 62.3655 36.0391 61.83C35.6566 61.1797 36.4216 59.9174 36.5746 59.1907C36.8423 58.0814 36.8041 57.0869 37.4161 56.1689C35.3506 57.2399 35.0063 58.9994 35.5418 61.1797C35.0063 60.4529 34.1266 59.6115 34.4708 58.7317C35.0063 57.2782 35.4271 55.3657 36.4598 54.0652C34.3178 54.7919 33.6676 56.5132 33.9736 58.7317C33.4763 57.9667 32.7496 57.0487 33.2086 56.2072C33.9353 54.8302 34.4708 52.8412 35.6566 51.7702C33.3998 52.1909 32.5583 54.027 32.7496 56.2837C32.3671 55.4422 31.6786 54.3712 32.2141 53.568C33.1321 52.191 33.8588 50.4697 35.1976 49.437C32.8643 49.7812 31.9846 51.2347 31.7551 53.5297C31.6021 52.9559 31.3726 52.3057 31.2961 51.732C31.1813 51.0435 31.6403 50.6992 32.1376 50.202C33.1321 49.131 33.6293 47.7539 34.8533 47.0272C32.5583 47.0272 31.2961 48.6337 31.0666 50.8139C30.9901 50.2019 30.8753 49.5899 30.7988 49.0162C30.7606 48.8249 30.6076 48.5955 30.7223 48.4807C31.1813 47.8305 32.0228 47.3332 32.5583 46.7595C33.3998 45.9562 33.8588 45.153 34.8916 44.6557C32.5583 44.5027 31.2196 45.765 30.7223 47.907C30.6841 47.3715 30.3398 46.0709 30.6076 45.6502C30.9901 44.9999 32.0611 44.5027 32.6731 44.0437C33.5911 43.3552 34.0883 42.5902 35.1593 42.2077C32.8261 41.7487 31.3726 43.0874 30.6458 45.1147C30.6841 44.5027 30.4928 43.3552 30.7988 42.7814C31.1048 42.2077 32.4436 41.7869 33.0173 41.4044C33.9353 40.8307 34.5473 40.1039 35.6948 39.8744C33.5911 39.1859 31.7551 40.2187 30.9136 42.1312C31.0283 41.5192 30.9518 40.5247 31.2961 39.9892C31.6403 39.4155 33.0556 39.1477 33.6293 38.8034C34.6238 38.3062 35.2741 37.6177 36.4598 37.503C34.3178 36.585 32.5966 37.5029 31.4491 39.3007C31.6403 38.6504 31.7168 37.8089 32.0611 37.1969C32.4436 36.6232 33.8206 36.5467 34.4708 36.3172C35.1211 36.0494 35.7331 35.6287 36.4598 35.4374C36.6511 35.3992 36.8423 35.3609 37.0336 35.3609C37.1483 35.3609 37.4161 35.4757 37.4161 35.3609C37.3778 35.0549 36.2303 34.8254 36.0008 34.7872C34.2796 34.4812 33.3616 35.4374 32.3288 36.4702C32.5583 35.8582 32.7496 35.0932 33.0938 34.5959C33.5146 34.0222 35.0063 34.0605 35.6566 33.8692C36.3833 33.678 36.9953 33.3719 37.7221 33.2572C37.9516 33.2189 38.1811 33.1807 38.3341 33.2189C38.4871 33.2189 38.7548 33.4102 38.7166 33.2955C38.6783 32.9512 37.6073 32.607 37.3778 32.5305C35.7713 32.0332 34.4708 32.9129 33.4381 33.9457C33.7441 33.3719 33.9736 32.6452 34.4326 32.148C34.8916 31.5742 36.3451 31.7654 37.1483 31.6507C37.8368 31.5359 38.4871 31.2299 39.2521 31.2299C39.4433 31.1917 39.6728 31.2299 39.8641 31.2682C39.9788 31.2682 40.2466 31.4594 40.2466 31.3447C40.2466 31.0769 39.1373 30.5414 38.9461 30.4649C37.4161 29.8147 35.9243 30.6179 34.8151 31.4977C36.0008 29.4322 36.4598 29.6617 38.7166 29.6234C39.7111 29.5852 40.6291 29.2792 41.5471 29.5852C42.0443 29.7764 41.0116 28.8202 40.6673 28.6289C39.2138 27.9022 37.7986 28.3612 36.5363 29.0497C36.8423 28.6672 37.1866 28.2847 37.5308 27.9022C38.4106 26.9459 39.6728 27.5579 40.9351 27.6344C41.8148 27.7109 42.6563 27.5197 43.4213 27.9022C43.8803 28.1317 42.9241 27.0989 42.6181 26.9077C41.2411 26.0279 39.7111 26.2957 38.4106 26.9459C38.7931 26.6017 39.1373 26.3339 39.4816 25.9897C40.6291 24.9569 41.7766 25.875 43.2301 26.028C44.1481 26.1427 45.6398 26.5252 45.5633 26.3339C44.6071 24.4214 42.3503 24.4214 40.5908 25.0334C41.0116 24.7274 42.0443 23.6182 42.5033 23.6564C43.2683 23.6947 44.1481 24.2684 44.9131 24.498C45.5251 24.7275 46.3283 24.7657 46.9786 24.9952C47.1698 25.1099 47.3611 25.2247 47.4758 25.3394C47.6288 25.4159 47.7436 25.6837 47.8201 25.5689C47.9348 25.3394 47.2081 24.3832 47.0551 24.1919C45.9841 23.0444 44.4923 22.9679 43.0006 23.3122C43.4978 22.9679 44.3011 22.2794 44.9131 22.2029C45.6398 22.1647 46.6726 22.9679 47.3228 23.2739C47.9348 23.5417 48.6998 23.6947 49.3118 24.0007C49.5031 24.1154 49.6561 24.2302 49.8091 24.3832C49.8856 24.4597 50.0003 24.7657 50.0768 24.6509C50.2681 24.3832 49.6178 23.3887 49.4648 23.2357C48.5086 22.0117 47.0168 21.7057 45.4486 21.9734C46.0606 21.6674 46.7873 21.1319 47.4758 21.0554C48.1261 20.9789 49.1588 22.0117 49.7708 22.3559C50.3828 22.7384 51.1096 22.9297 51.6833 23.3504C51.8363 23.4652 52.0276 23.6182 52.1423 23.7712C52.1806 23.8094 52.2571 24.0007 52.2953 24.0389C52.3336 24.1154 52.3718 24.1154 52.4101 24.0772C52.4866 24.0007 52.4101 23.6947 52.2953 23.4652C52.1423 23.0827 51.9511 22.7002 51.8746 22.6237C51.1096 21.3614 49.6943 20.6729 48.1643 20.9024C48.7381 20.6729 49.3501 20.4434 49.9621 20.2904C50.7271 20.0609 51.6068 21.1319 52.2953 21.7057C52.3336 21.7439 52.3718 21.7822 52.4101 21.7822C53.0221 22.2794 53.7488 22.5472 54.3226 23.0827C54.4756 23.2357 54.5903 23.3504 54.7051 23.5034C55.0111 23.9624 54.8198 23.0827 54.7433 22.8532C54.6668 22.5089 54.5138 22.2029 54.3608 21.8969C54.2461 21.7057 54.0931 21.5144 53.9401 21.3614C53.4811 20.8642 52.9073 20.5582 52.3336 20.3669C51.8746 20.2522 51.4156 20.1757 50.9183 20.1374C51.3773 19.9844 51.8746 19.8697 52.3336 19.7932C52.4866 19.7932 52.6013 19.7549 52.7543 19.7167C53.3281 19.6402 53.9018 20.1374 54.3608 20.6347C54.7433 21.0172 55.0111 21.3997 55.3171 21.6674C55.9291 22.2029 56.7706 22.5854 57.1148 23.3887C57.2296 23.6182 57.2678 23.5417 57.3061 23.3887V23.0827C57.2678 22.9297 57.2678 22.7767 57.2678 22.7002C57.2296 22.0882 56.9236 21.5527 56.6176 21.0937C55.9673 20.2904 55.2406 19.9462 54.3608 19.7167C54.1696 19.6784 53.9783 19.6019 53.8253 19.5637C53.9783 19.5637 54.2078 19.5254 54.3608 19.4872C55.0876 19.3342 56.0056 19.2194 56.3881 19.6784C56.7323 20.0227 57.0001 20.3669 57.3061 20.7112C57.7651 21.2467 58.2623 21.8204 58.8361 22.3559C59.1421 22.6619 59.3716 22.9679 59.5628 23.3122C59.6393 23.4652 59.6011 23.8094 59.7541 23.7329C60.0218 23.5799 59.7923 22.3559 59.7541 22.2029C59.3716 20.8259 58.4536 20.0609 57.3061 19.6019C57.0383 19.4872 56.8088 19.4107 56.6176 19.3342C56.8088 19.3342 57.0766 19.2959 57.3061 19.2959C58.0328 19.2577 58.9126 19.2577 59.2568 19.7167C59.9836 20.7877 60.6721 21.7822 61.5136 22.8532C61.8196 23.2357 61.8196 23.6947 62.0491 24.0389C62.1256 24.1537 62.2786 23.4269 62.2786 23.1592C62.3168 22.4324 62.1256 21.7822 61.8196 21.2084C61.5136 20.6729 61.0928 20.2139 60.5191 19.8697C60.2896 19.7549 60.0601 19.6402 59.8688 19.5254C59.7541 19.4872 59.5246 19.4872 59.6011 19.4107C59.9453 19.1429 60.3661 19.4872 60.8251 19.5637C61.9726 19.7549 62.2403 20.2522 62.6228 21.0554C62.7376 21.2849 62.8523 21.5909 63.0436 21.8587C63.3878 22.5089 64.0381 23.1592 64.3441 23.8859C64.4206 24.1154 64.3824 24.4214 64.4971 24.6509C64.6119 24.8039 64.8031 24.1154 64.8413 23.8859C64.9943 23.3122 64.8796 22.7002 64.6884 22.2029C64.3441 21.3232 63.8468 20.6729 63.0436 20.1374C62.8523 20.0227 62.7376 19.9462 62.6611 19.9079C62.5081 19.7549 62.5463 19.7167 62.6611 19.7167C63.0436 19.7549 64.1146 20.1374 64.3823 20.2139C65.1091 20.5199 65.1856 21.4379 65.4534 22.1647C65.8359 23.2739 66.7156 24.1537 66.7156 25.4159C66.7156 25.8749 67.0981 24.9187 67.1363 24.7657C67.6718 22.9679 66.7156 21.5909 65.4151 20.5582C66.0653 21.0172 67.4041 20.8259 67.6336 21.6674C68.0161 22.9679 68.3603 24.1537 68.7811 25.3777C68.9341 25.7984 68.8193 26.2574 68.9341 26.6782C68.9723 26.7929 69.3931 26.028 69.4696 25.8367C69.6608 25.3395 69.6991 24.6892 69.6226 24.1154C69.3548 22.7384 67.5188 21.3232 68.8193 21.8969C69.0871 22.0499 70.0051 22.3942 70.1198 22.5089C70.2728 22.6619 70.2728 23.3122 70.3111 23.5034C70.5406 24.9952 71.2673 26.4869 70.9996 27.9787C70.9231 28.4377 71.5351 27.4815 71.6116 27.3667C72.0706 26.5252 72.0323 25.1482 71.6498 24.2684C71.4586 23.8094 71.1526 23.5034 70.8466 23.1209C70.7318 22.9679 70.3876 22.6619 70.5406 22.7384C70.9231 22.8914 71.2673 23.1592 71.6116 23.3504C71.8793 23.5417 72.5678 23.8094 72.6061 24.2302C72.7591 25.0717 72.6061 26.0279 72.6826 26.8694C72.7208 27.4049 72.9121 27.8639 72.9503 28.3994C72.9503 28.8584 72.6826 29.6617 72.9121 29.4705C73.7918 28.6672 74.1743 27.5197 73.9831 26.2574C73.9066 25.7602 73.7918 25.3777 73.5241 24.9569C73.4093 24.8039 73.3328 24.6892 73.2563 24.5744C73.1798 24.4597 72.9503 24.2685 73.0651 24.3067C73.6006 24.6892 74.1361 25.1099 74.6333 25.5689C75.0923 25.9897 74.7481 27.4049 74.6716 28.0169C74.5951 29.1262 74.5951 30.2737 74.4421 31.2682C74.4421 31.4212 75.0923 30.8092 75.2453 30.618C75.5896 30.1972 75.7426 29.7764 75.8573 29.2409C76.0486 28.3994 76.0103 27.4049 75.5513 26.7547C74.7863 25.4924 76.2016 27.0607 76.6223 27.4814C77.0813 27.9404 76.8136 28.3612 76.6988 28.9349C76.4693 30.0059 76.5076 31.2682 76.2781 32.3774C76.2398 32.6834 76.1251 32.9129 75.9721 33.1424C75.8191 33.4102 76.8518 32.6069 77.0813 32.3009C77.6933 31.4594 77.9993 30.0824 77.6551 29.0114C77.5786 28.8202 77.4638 28.6289 77.3491 28.4759C77.3108 28.3229 77.1196 28.0552 77.2343 28.1317C77.7316 28.476 78.6113 29.5469 78.7261 30.0059C78.8026 30.3502 78.3053 31.3064 78.2288 31.5359C77.8081 32.6452 77.8463 34.1369 77.1961 35.0549C76.8901 35.5522 77.6168 35.0167 77.8463 34.8637C78.4201 34.4812 78.8408 33.8692 79.0703 33.2572C79.2616 32.7982 79.3763 32.1862 79.2998 31.6124C79.2616 31.1534 78.8026 30.0059 79.3763 30.9239C79.4528 31.0387 79.5293 31.1152 79.5676 31.2299C79.7971 31.5742 80.2178 32.0332 80.2943 32.4157C80.3326 32.4922 80.1413 32.8365 80.1031 32.913C79.8353 33.6015 79.4911 34.2517 79.2233 34.9019C78.9173 35.8199 78.8408 36.6997 78.1906 37.4264C77.8463 37.8089 78.8791 37.2352 79.0321 37.1587C79.9883 36.5849 80.5238 35.5904 80.6768 34.4812C80.7533 33.9839 80.4473 32.6834 80.6386 33.0277C80.9063 33.4484 81.2123 34.0987 81.4036 34.5577C81.7096 35.3992 80.7533 36.3937 80.3326 37.1969C79.9118 38.0767 79.7971 38.9947 79.0703 39.7214C78.6878 40.1422 79.4528 39.7597 79.7206 39.6449C81.3271 39.0329 81.9008 37.35 81.7861 35.5905C81.7096 34.9402 82.0921 36.0877 82.2833 36.738C82.7806 38.1532 81.2123 39.3007 80.6003 40.6012C80.2943 41.1749 79.3763 42.2077 79.6823 42.1694C81.4036 42.0547 82.5893 40.3717 82.7423 38.7269C82.8188 37.3117 83.4691 40.2187 82.9718 40.8689C81.9773 42.0929 80.9828 43.9672 79.6441 44.6939C81.7478 44.6939 83.0866 43.3552 83.3926 41.3662C83.4308 40.9837 83.3926 40.5247 83.5073 41.2897C83.5456 41.4427 83.5838 41.5957 83.5838 41.7487C83.6603 42.1694 84.0046 42.9344 83.8133 43.2787C83.5838 43.6612 83.0866 44.0055 82.7423 44.2732C81.6331 45.1912 80.9446 46.5299 79.6441 47.1037C81.7096 47.3714 83.2396 46.1092 83.7368 44.1967C83.8133 43.8907 83.8133 43.6229 83.8898 44.2349C83.8898 44.3497 83.8898 44.5027 83.8898 44.6557C84.0046 45 84.1958 45.6884 84.0046 46.0709Z"
                fill="#C5932C"
            />
            <path
                d="M67.7707 37.5225L67.6559 37.8667H67.2734L67.5794 38.0962L67.4647 38.4787L67.7707 38.2492L68.0767 38.4787L67.9619 38.0962L68.3062 37.8667H67.8855L67.7707 37.5225Z"
                fill="#DCBE80"
            />
            <path
                d="M66.7132 37.5225L66.5985 37.8667H66.1777L66.522 38.0962L66.4072 38.4787L66.7132 38.2492L67.0192 38.4787L66.9045 38.0962L67.2105 37.8667H66.828L66.7132 37.5225Z"
                fill="#DCBE80"
            />
            <path
                d="M65.6789 37.5225L65.5641 37.8667H65.1816L65.4876 38.0962L65.3729 38.4787L65.6789 38.2492L65.9849 38.4787L65.8701 38.0962L66.2144 37.8667H65.7936L65.6789 37.5225Z"
                fill="#DCBE80"
            />
            <path
                d="M64.5218 37.5225L64.4071 37.8667H63.9863L64.3306 38.0962L64.2158 38.4787L64.5218 38.2492L64.8278 38.4787L64.7131 38.0962L65.0191 37.8667H64.6366L64.5218 37.5225Z"
                fill="#DCBE80"
            />
            <path
                d="M63.5257 37.5225L63.411 37.8667H62.9902L63.3345 38.0962L63.1815 38.4787L63.5257 38.2492L63.8317 38.4787L63.717 38.0962L64.023 37.8667H63.6405L63.5257 37.5225Z"
                fill="#DCBE80"
            />
            <path
                d="M62.3918 37.5225L62.277 37.8667H61.8945L62.2005 38.0962L62.0858 38.4787L62.3918 38.2492L62.6978 38.4787L62.583 38.0962L62.9273 37.8667H62.5065L62.3918 37.5225Z"
                fill="#DCBE80"
            />
            <path
                d="M61.3343 37.5225L61.2196 37.8667H60.7988L61.1431 38.0962L61.0283 38.4787L61.3343 38.2492L61.6403 38.4787L61.5256 38.0962L61.8316 37.8667H61.4491L61.3343 37.5225Z"
                fill="#DCBE80"
            />
            <path
                d="M60.3 37.5225L60.1852 37.8667H59.8027L60.1088 38.0962L59.994 38.4787L60.3 38.2492L60.6442 38.4787L60.4913 38.0962L60.8355 37.8667H60.4147L60.3 37.5225Z"
                fill="#DCBE80"
            />
            <path
                d="M59.1047 37.5225L58.9899 37.8667H58.6074L58.9134 38.0962L58.7987 38.4787L59.1047 38.2492L59.4489 38.4787L59.3342 38.0962L59.6402 37.8667H59.2577L59.1047 37.5225Z"
                fill="#DCBE80"
            />
            <path
                d="M58.009 37.5225L57.8942 37.8667H57.5117L57.8177 38.0962L57.703 38.4787L58.009 38.2492L58.315 38.4787L58.2002 38.0962L58.5062 37.8667H58.1237L58.009 37.5225Z"
                fill="#DCBE80"
            />
            <path
                d="M57.0511 37.5225L56.8981 37.8667H56.5156L56.8599 38.0962L56.7069 38.4787L57.0511 38.2492L57.3571 38.4787L57.2424 38.0962L57.5484 37.8667H57.1659L57.0511 37.5225Z"
                fill="#DCBE80"
            />
            <path
                d="M55.9172 37.5225L55.8024 37.8667H55.4199L55.7259 38.0962L55.6112 38.4787L55.9172 38.2492L56.2232 38.4787L56.1084 38.0962L56.4144 37.8667H56.0319L55.9172 37.5225Z"
                fill="#DCBE80"
            />
            <path
                d="M54.8215 37.5225L54.7067 37.8667H54.3242L54.6302 38.0962L54.5155 38.4787L54.8215 38.2492L55.1275 38.4787L55.0127 38.0962L55.3187 37.8667H54.9362L54.8215 37.5225Z"
                fill="#DCBE80"
            />
            <path
                d="M53.764 37.5225L53.611 37.8667H53.2285L53.5728 38.0962L53.4198 38.4787L53.764 38.2492L54.07 38.4787L53.9553 38.0962L54.2613 37.8667H53.8788L53.764 37.5225Z"
                fill="#DCBE80"
            />
            <path
                d="M52.7297 37.5225L52.6149 37.8667H52.2324L52.5384 38.0962L52.4237 38.4787L52.7297 38.2492L53.0357 38.4787L52.9209 38.0962L53.2269 37.8667H52.8444L52.7297 37.5225Z"
                fill="#DCBE80"
            />
            <path
                d="M51.6722 37.5225L51.5192 37.8667H51.1367L51.4427 38.0962L51.328 38.4787L51.6722 38.2492L51.9782 38.4787L51.8635 38.0962L52.1695 37.8667H51.787L51.6722 37.5225Z"
                fill="#DCBE80"
            />
            <path
                d="M50.5383 37.5225L50.4235 37.8667H50.041L50.347 38.0962L50.2323 38.4787L50.5383 38.2492L50.8443 38.4787L50.7295 38.0962L51.0738 37.8667H50.653L50.5383 37.5225Z"
                fill="#DCBE80"
            />
            <path
                d="M49.4808 37.5225L49.3661 37.8667H48.9453L49.2896 38.0962L49.1748 38.4787L49.4808 38.2492L49.7868 38.4787L49.6721 38.0962L49.9781 37.8667H49.5956L49.4808 37.5225Z"
                fill="#DCBE80"
            />
            <path
                d="M48.3469 37.5225L48.2321 37.8667H47.8496L48.1556 38.0962L48.0409 38.4787L48.3469 38.2492L48.6529 38.4787L48.5381 38.0962L48.8824 37.8667H48.4616L48.3469 37.5225Z"
                fill="#DCBE80"
            />
            <path
                d="M47.2894 37.5225L47.1746 37.8667H46.7539L47.0982 38.0962L46.9834 38.4787L47.2894 38.2492L47.5954 38.4787L47.4807 38.0962L47.7866 37.8667H47.4041L47.2894 37.5225Z"
                fill="#DCBE80"
            />
            <path
                d="M67.7707 44.0339L67.6559 44.4164H67.2734L67.5794 44.6459L67.4647 44.9902L67.7707 44.7607L68.0767 44.9902L67.9619 44.6459L68.3062 44.4164H67.8855L67.7707 44.0339Z"
                fill="#DCBE80"
            />
            <path
                d="M66.7132 44.0339L66.5985 44.4164H66.1777L66.522 44.6459L66.4072 44.9902L66.7132 44.7607L67.0192 44.9902L66.9045 44.6459L67.2105 44.4164H66.828L66.7132 44.0339Z"
                fill="#DCBE80"
            />
            <path
                d="M65.6789 44.0339L65.5641 44.4164H65.1816L65.4876 44.6459L65.3729 44.9902L65.6789 44.7607L65.9849 44.9902L65.8701 44.6459L66.2144 44.4164H65.7936L65.6789 44.0339Z"
                fill="#DCBE80"
            />
            <path
                d="M64.5218 44.0339L64.4071 44.4164H63.9863L64.3306 44.6459L64.2158 44.9902L64.5218 44.7607L64.8278 44.9902L64.7131 44.6459L65.0191 44.4164H64.6366L64.5218 44.0339Z"
                fill="#DCBE80"
            />
            <path
                d="M63.5257 44.0339L63.411 44.4164H62.9902L63.3345 44.6459L63.1815 44.9902L63.5257 44.7607L63.8317 44.9902L63.717 44.6459L64.023 44.4164H63.6405L63.5257 44.0339Z"
                fill="#DCBE80"
            />
            <path
                d="M62.3918 44.0339L62.277 44.4164H61.8945L62.2005 44.6459L62.0858 44.9902L62.3918 44.7607L62.6978 44.9902L62.583 44.6459L62.9273 44.4164H62.5065L62.3918 44.0339Z"
                fill="#DCBE80"
            />
            <path
                d="M61.3343 44.0339L61.2196 44.4164H60.7988L61.1431 44.6459L61.0283 44.9902L61.3343 44.7607L61.6403 44.9902L61.5256 44.6459L61.8316 44.4164H61.4491L61.3343 44.0339Z"
                fill="#DCBE80"
            />
            <path
                d="M60.3 44.0339L60.1852 44.4164H59.8027L60.1088 44.6459L59.994 44.9902L60.3 44.7607L60.6442 44.9902L60.4913 44.6459L60.8355 44.4164H60.4147L60.3 44.0339Z"
                fill="#DCBE80"
            />
            <path
                d="M59.1047 44.0339L58.9899 44.4164H58.6074L58.9134 44.6459L58.7987 44.9902L59.1047 44.7607L59.4489 44.9902L59.3342 44.6459L59.6402 44.4164H59.2577L59.1047 44.0339Z"
                fill="#DCBE80"
            />
            <path
                d="M58.009 44.0339L57.8942 44.4164H57.5117L57.8177 44.6459L57.703 44.9902L58.009 44.7607L58.315 44.9902L58.2002 44.6459L58.5062 44.4164H58.1237L58.009 44.0339Z"
                fill="#DCBE80"
            />
            <path
                d="M57.0511 44.0339L56.8981 44.4164H56.5156L56.8599 44.6459L56.7069 44.9902L57.0511 44.7607L57.3571 44.9902L57.2424 44.6459L57.5484 44.4164H57.1659L57.0511 44.0339Z"
                fill="#DCBE80"
            />
            <path
                d="M55.9172 44.0339L55.8024 44.4164H55.4199L55.7259 44.6459L55.6112 44.9902L55.9172 44.7607L56.2232 44.9902L56.1084 44.6459L56.4144 44.4164H56.0319L55.9172 44.0339Z"
                fill="#DCBE80"
            />
            <path
                d="M54.8215 44.0339L54.7067 44.4164H54.3242L54.6302 44.6459L54.5155 44.9902L54.8215 44.7607L55.1275 44.9902L55.0127 44.6459L55.3187 44.4164H54.9362L54.8215 44.0339Z"
                fill="#DCBE80"
            />
            <path
                d="M53.764 44.0339L53.611 44.4164H53.2285L53.5728 44.6459L53.4198 44.9902L53.764 44.7607L54.07 44.9902L53.9553 44.6459L54.2613 44.4164H53.8788L53.764 44.0339Z"
                fill="#DCBE80"
            />
            <path
                d="M52.7297 44.0339L52.6149 44.4164H52.2324L52.5384 44.6459L52.4237 44.9902L52.7297 44.7607L53.0357 44.9902L52.9209 44.6459L53.2269 44.4164H52.8444L52.7297 44.0339Z"
                fill="#DCBE80"
            />
            <path
                d="M51.6722 44.0339L51.5192 44.4164H51.1367L51.4427 44.6459L51.328 44.9902L51.6722 44.7607L51.9782 44.9902L51.8635 44.6459L52.1695 44.4164H51.787L51.6722 44.0339Z"
                fill="#DCBE80"
            />
            <path
                d="M50.5383 44.0339L50.4235 44.4164H50.041L50.347 44.6459L50.2323 44.9902L50.5383 44.7607L50.8443 44.9902L50.7295 44.6459L51.0738 44.4164H50.653L50.5383 44.0339Z"
                fill="#DCBE80"
            />
            <path
                d="M49.4808 44.0339L49.3661 44.4164H48.9453L49.2896 44.6459L49.1748 44.9902L49.4808 44.7607L49.7868 44.9902L49.6721 44.6459L49.9781 44.4164H49.5956L49.4808 44.0339Z"
                fill="#DCBE80"
            />
            <path
                d="M48.3469 44.0339L48.2321 44.4164H47.8496L48.1556 44.6459L48.0409 44.9902L48.3469 44.7607L48.6529 44.9902L48.5381 44.6459L48.8824 44.4164H48.4616L48.3469 44.0339Z"
                fill="#DCBE80"
            />
            <path
                d="M47.2894 44.0341L47.1746 44.4166H46.7539L47.0982 44.6461L46.9834 44.9903L47.2894 44.7608L47.5954 44.9903L47.4807 44.6461L47.7866 44.4166H47.4041L47.2894 44.0341Z"
                fill="#DCBE80"
            />
</svg>
